<?xml version="1.0" standalone="no"?>
<svg viewBox="0 0 200 200" xmlns="http://www.w3.org/2000/svg">
  <path fill="#FF0066" d="M48,-75.2C62.1,-65.7,73.4,-52.2,80.6,-36.7C87.8,-21.3,90.9,-3.9,89.1,13.2C87.2,30.3,80.4,47,68.9,59.1C57.5,71.2,41.4,78.6,24.4,83.9C7.5,89.2,-10.3,92.5,-26.1,88.1C-41.9,83.8,-55.7,72,-63.6,57.9C-71.6,43.8,-73.8,27.3,-75.2,11.4C-76.6,-4.6,-77.2,-20.1,-73.2,-35.3C-69.1,-50.5,-60.4,-65.5,-47.5,-75.5C-34.5,-85.5,-17.2,-90.5,-0.1,-90.3C17,-90.1,33.9,-84.6,48,-75.2Z" transform="translate(100 100)" />
</svg>
